<svg width="390" height="390" fill="#662c91" xmlns="http://www.w3.org/2000/svg" xmlns:svg="http://www.w3.org/2000/svg">
  <title>Three PM Plugins logo</title>
  <path d="m320.2,3.1c-1.3,-0.1 -2.6,-0.1 -3.9,-0.1l-0.2,0c-16.2,0 -32,5.4 -44.6,15.1c-1.6,1.3 -2.6,3.2 -2.7,5.2c-0.1,2 0.8,4 2.3,5.4l89.8,80.5c1.3,1.1 2.9,1.8 4.6,1.8l0.4,0c1.9,-0.1 3.6,-1 4.8,-2.4c9.2,-10.6 16.3,-18.8 16.3,-36.6c0.1,-36.4 -29.1,-66.8 -66.8,-68.9zm-317.2,68.9c0,17.8 7.1,26 16.3,36.6c1.2,1.4 2.9,2.3 4.8,2.4l0.4,0c1.7,0 3.3,-0.6 4.6,-1.8l89.9,-80.5c1.5,-1.4 2.4,-3.3 2.3,-5.4c-0.1,-2 -1,-3.9 -2.7,-5.2c-12.6,-9.7 -28.4,-15.1 -44.6,-15.1l-0.2,0c-1.3,0 -2.6,0 -3.9,0.1c-37.7,2.1 -67,32.5 -66.9,68.9z" />
  <path d="m60.88068,325c-26.12557,-30.7 -41.88068,-70.5 -41.88068,-114c0,-97.2 78.57614,-176 175.5,-176s175.5,78.8 175.5,176c0,43.5 -15.75511,83.3 -41.88068,114l34.60142,35.5c6.18239,6.3 5.98295,15.5 -0.29915,21.6c-3.09119,3 -7.37898,4.8 -11.36761,4.8c-4.18807,0 -8.07699,-1.9 -11.16818,-5.1l-34.50171,-34.5c-30.21392,24.7 -68.80398,39.6 -110.88409,39.6s-80.67017,-14.8 -110.88409,-39.6l-33.50455,34.5c-3.09119,3.2 -7.27926,5.1 -11.46733,5.1c-3.98864,0 -8.07699,-1.8 -11.16818,-4.8c-6.2821,-6.2 -7.47869,-15.3 -1.29631,-21.6l34.70114,-35.5zm119.65909,-112c0,7.7 6.2821,14 13.96023,14l81.76705,0c7.67813,0 13.96023,-6.3 13.96023,-14s-6.2821,-14 -13.96023,-14l-67.80682,0l0,-102c0,-7.7 -6.2821,-14 -13.96023,-14s-13.96023,6.3 -13.96023,14l0,116z" />
</svg>
